<?xml version="1.0" encoding="utf-8"?>
<!-- Generator: Adobe Illustrator 17.0.0, SVG Export Plug-In . SVG Version: 6.00 Build 0)  -->
<!DOCTYPE svg PUBLIC "-//W3C//DTD SVG 1.1 Tiny//EN" "http://www.w3.org/Graphics/SVG/1.1/DTD/svg11-tiny.dtd">
<svg version="1.1" baseProfile="tiny" id="Layer_1" xmlns="http://www.w3.org/2000/svg" xmlns:xlink="http://www.w3.org/1999/xlink"
	 x="0px" y="0px" width="740px" height="737px" viewBox="0 0 740 737" xml:space="preserve">
<g>
	<polygon fill="#0080FF" points="0,737 0,315 51,315 51,159 102,159 102,107 156,107 156,53 261,53 261,0 475,0 475,47 579,47 
		579,98 631,98 631,158 687,158 687,315 740,315 740,737 685,737 685,687 633,687 633,633 580,633 580,684 528,684 528,737 421,737 
		421,633 316,633 316,737 210,737 210,687 157,687 157,635 103,635 103,686 51,686 51,737 	"/>
	<polygon fill="#FFFFFF" points="210,156 318,156 318,209 370,209 370,368 318,368 318,419 210,419 210,368 157,368 157,209 
		208,209 	"/>
	<polygon fill="#FFFFFF" points="526,156 631,156 631,209 687,209 687,368 633,368 633,419 526,419 526,368 477,368 477,213 
		528,213 	"/>
	<rect x="582" y="263" width="105" height="105"/>
	<rect x="263" y="263" width="107" height="105"/>
</g>
</svg>
