<?xml version="1.0" encoding="utf-8"?>
<!-- Generator: Adobe Illustrator 17.1.0, SVG Export Plug-In . SVG Version: 6.00 Build 0)  -->
<!DOCTYPE svg PUBLIC "-//W3C//DTD SVG 1.1 Tiny//EN" "http://www.w3.org/Graphics/SVG/1.1/DTD/svg11-tiny.dtd">
<svg version="1.1" baseProfile="tiny" id="Layer_1" xmlns="http://www.w3.org/2000/svg" xmlns:xlink="http://www.w3.org/1999/xlink"
	 x="0px" y="0px" viewBox="0 0 209 40" xml:space="preserve">
<g id="_x30_mMlcH.tif">
	<g>
		<path fill="#FFFFFF" d="M63.203,12.36c0.946-0.516,1.806-1.217,2.783-1.475c3.317-0.879,6.542-0.747,9.41,1.457
			c0.958,0.736,1.649,0.608,2.551-0.175c0.684-0.593,1.514-1.108,2.368-1.397c1.673-0.567,3.431-0.539,5.092,0.051
			c2.375,0.844,3.747,2.711,4.251,5.079c0.336,1.581,0.281,3.252,0.333,4.885c0.08,2.545,0.112,5.091,0.146,7.637
			c0.023,1.727,0.049,3.455,0.009,5.18c-0.034,1.462-0.795,2.105-2.23,2.071c-1.55-0.037-3.102-0.058-4.652-0.039
			c-1.162,0.014-1.703-0.409-1.707-1.591c-0.011-3.071,0.038-6.142,0.027-9.213c-0.004-1.05-0.042-2.112-0.197-3.148
			c-0.186-1.236-0.966-1.916-1.95-1.892c-1.228,0.029-1.98,0.669-2.177,1.968c-0.091,0.601-0.031,1.226-0.033,1.84
			c-0.012,2.921-0.027,5.843-0.025,8.764c0,0.406,0.091,0.812,0.142,1.217c0.159,1.274-0.611,2.068-1.882,2.046
			c-2.07-0.035-4.142-0.031-6.213-0.001c-1.039,0.015-1.508-0.281-1.729-1.316c-0.078-0.367-0.094-0.754-0.093-1.132
			c0.011-3.426,0.044-6.851,0.037-10.277c-0.001-0.546-0.101-1.114-0.272-1.633c-0.256-0.775-0.808-1.356-1.669-1.323
			c-0.874,0.033-1.72,0.336-2.003,1.29c-0.197,0.662-0.327,1.373-0.323,2.061c0.023,3.332,0.098,6.664,0.163,9.996
			c0.031,1.588-0.598,2.323-2.055,2.334c-2.014,0.016-4.028,0.023-6.042,0.017c-1.457-0.004-1.953-0.385-2.002-1.83
			c-0.061-1.808,0.073-3.622,0.06-5.433c-0.039-5.119-0.111-10.237-0.17-15.356c-0.016-1.432,0.928-2.339,2.482-2.341
			c1.318-0.002,2.635,0.039,3.953,0.061c0.117,0.002,0.238,0.021,0.351,0c1.411-0.267,2.625-0.139,3.115,1.506
			C63.069,12.314,63.187,12.349,63.203,12.36z"/>
		<path fill="#FFFFFF" d="M49.999,19.364c0,2.456-0.011,4.911,0.004,7.367c0.011,1.782,0.07,3.564,0.081,5.346
			c0.004,0.729-0.003,1.468-0.11,2.187c-0.144,0.966-0.644,1.37-1.621,1.376c-2.192,0.014-4.384-0.015-6.576,0.006
			c-0.624,0.006-0.91-0.316-1.054-0.842c-0.158-0.576-0.478-0.742-0.949-0.35c-2.493,2.075-5.334,1.728-8.172,1.128
			c-4.033-0.852-6.43-4.839-6.244-8.523c0.054-1.075,0.043-2.153,0.038-3.23c-0.01-2.457-0.045-4.914-0.047-7.371
			c-0.001-1.341,0.039-2.681,0.075-4.022c0.032-1.193,0.531-1.688,1.748-1.687c1.989,0.001,3.979,0.018,5.968,0.057
			c1.567,0.03,2.075,0.486,2.07,2.064c-0.008,2.513-0.176,5.026-0.16,7.538c0.01,1.541,0.135,3.098,0.391,4.617
			c0.265,1.573,2.139,2.192,3.24,1.046c0.6-0.625,1.144-1.583,1.186-2.417c0.173-3.501,0.178-7.012,0.179-10.519
			c0-1.491,0.7-2.324,2.181-2.337c1.754-0.016,3.507-0.032,5.26-0.05c2.057-0.021,2.687,0.596,2.689,2.644
			c0.001,1.991,0,3.982,0,5.973C50.119,19.363,50.059,19.363,49.999,19.364z"/>
		<path fill="#FFFFFF" d="M93.077,23.26c0-3.365,0-6.73,0-10.095c0-1.841,0.675-2.467,2.501-2.426
			c1.838,0.042,3.678,0.049,5.516,0.012c0.703-0.014,1.201,0.104,1.382,0.868c0.157,0.665,0.588,0.702,1.033,0.304
			c3.142-2.805,10.882-1.881,13.334,2.978c0.547,1.085,0.791,2.377,0.927,3.602c0.157,1.413,0.048,2.857,0.042,4.287
			c-0.018,3.773-0.036,7.545-0.072,11.318c-0.01,1.085-0.472,1.529-1.575,1.534c-2.019,0.009-4.038,0.011-6.057-0.025
			c-1.661-0.03-2.099-0.453-2.087-2.11c0.019-2.63,0.152-5.26,0.144-7.89c-0.004-1.249-0.117-2.518-0.365-3.74
			c-0.314-1.548-0.948-2.06-2.091-2.031c-0.98,0.025-2.156,1.034-2.279,2.214c-0.223,2.143-0.358,4.3-0.414,6.454
			c-0.042,1.635,0.118,3.274,0.145,4.912c0.024,1.449-0.796,2.213-2.233,2.202c-1.636-0.013-3.273,0.014-4.91,0.006
			c-0.525-0.002-1.058-0.009-1.571-0.104c-0.842-0.156-1.374-0.684-1.39-1.563c-0.018-1.022,0.065-2.045,0.069-3.067
			c0.012-2.547,0.004-5.093,0.004-7.64C93.113,23.26,93.095,23.26,93.077,23.26z"/>
		<path fill="#FFFFFF" d="M119.881,23.144c-0.372-3.983,1.345-6.79,3.943-9.194c2.601-2.407,5.591-3.687,9.226-3.861
			c2.931-0.141,5.55,0.504,7.938,1.962c2.655,1.621,4.62,3.95,5.479,7.03c1.233,4.425,0.433,8.448-2.32,12.16
			c-2.391,3.224-5.645,4.496-9.49,4.822c-1.905,0.162-3.759-0.044-5.556-0.499c-2.162-0.547-4.084-1.591-5.646-3.318
			c-1.903-2.105-3.224-4.435-3.561-7.267C119.811,24.289,119.881,23.581,119.881,23.144z M137.365,23.041
			c0.029-2.232-1.658-3.864-4.051-3.92c-2.09-0.049-4.052,1.872-4.083,3.998c-0.038,2.642,1.509,4.4,4.031,4.401
			C135.146,27.521,137.35,25.972,137.365,23.041z"/>
		<path fill="#FFFFFF" d="M197.101,25.575c-1.842,0-3.686-0.034-5.527,0.024c-0.47,0.015-0.931,0.321-1.396,0.493
			c0.231,0.499,0.341,1.134,0.717,1.47c0.929,0.828,2.135,1.057,3.353,1.094c2.642,0.08,5.26-0.029,7.749-1.082
			c0.345-0.146,0.724-0.245,1.096-0.292c1.068-0.135,1.607,0.498,1.508,1.462c-0.128,1.239,0.026,2.512,0.107,3.767
			c0.04,0.626-0.191,1.04-0.671,1.42c-1.605,1.27-3.498,1.716-5.46,1.941c-2.777,0.318-5.602,0.441-8.289-0.311
			c-3.637-1.018-6.899-2.777-8.303-6.625c-1.535-4.207-1.719-8.445,0.577-12.461c2.348-4.109,5.874-6.36,10.733-6.074
			c1.676,0.099,3.454,0.113,4.985,0.696c3.98,1.515,5.772,4.833,6.397,8.853c0.192,1.234,0.213,2.508,0.18,3.76
			c-0.033,1.282-0.595,1.797-1.874,1.821c-1.96,0.037-3.922,0.01-5.883,0.01C197.102,25.551,197.102,25.563,197.101,25.575z
			 M192.851,16.869c-0.435,0.218-1.327,0.561-2.085,1.094c-0.315,0.222-0.542,0.901-0.442,1.274
			c0.078,0.292,0.714,0.594,1.115,0.613c1.395,0.065,2.798,0.047,4.193-0.025c0.376-0.019,1.016-0.31,1.042-0.534
			c0.049-0.424-0.131-1.028-0.441-1.311C195.447,17.26,194.468,16.861,192.851,16.869z"/>
		<path fill="#FFFFFF" d="M12.616,36.232c-1.977-0.134-3.945-0.136-5.795-0.938c-1.763-0.764-2.063-1.312-1.918-3.241
			c0.059-0.787,0.021-1.581,0.053-2.371c0.097-2.4,1.21-2.605,3.13-2.343c1.355,0.185,2.705,0.404,4.062,0.573
			c0.66,0.083,1.266-0.107,1.494-0.798c0.229-0.69-0.02-1.297-0.662-1.64c-0.848-0.453-1.749-0.807-2.597-1.259
			c-1.051-0.561-2.196-1.034-3.079-1.8c-2.208-1.915-2.291-4.503-1.792-7.124c0.47-2.468,2.224-3.911,4.476-4.607
			c3.426-1.059,6.894-0.684,10.297,0.25c1.408,0.386,1.554,0.784,1.46,2.241c-0.062,0.962,0.003,1.931-0.008,2.896
			c-0.019,1.695-1.088,2.43-2.754,1.948c-0.753-0.218-1.528-0.447-2.301-0.478c-0.402-0.016-0.821,0.387-1.232,0.6
			c0.245,0.349,0.415,0.822,0.748,1.025c1.42,0.864,2.925,1.59,4.331,2.475c1.77,1.114,2.893,2.648,2.935,4.87
			c0.031,1.645,0.094,3.261-0.64,4.801c-1.207,2.53-3.27,3.925-5.948,4.428C15.476,36.005,14.038,36.075,12.616,36.232z"/>
		<path fill="#FFFFFF" d="M168.89,36.226c-1.498-0.157-2.933-0.241-4.341-0.483c-0.761-0.131-1.498-0.484-2.204-0.824
			c-0.935-0.45-1.358-1.204-1.244-2.288c0.104-0.987,0.088-1.988,0.12-2.982c0.076-2.369,1.18-2.554,3.061-2.321
			c1.357,0.168,2.704,0.41,4.06,0.583c0.686,0.087,1.338-0.079,1.563-0.821c0.222-0.731-0.082-1.336-0.764-1.681
			c-0.833-0.422-1.674-0.835-2.541-1.18c-1.605-0.639-3.161-1.396-4.036-2.944c-2.251-3.981-1.113-9.605,4.449-10.813
			c3.198-0.695,6.346-0.404,9.452,0.451c1.513,0.417,1.618,0.725,1.538,2.261c-0.049,0.934,0,1.874-0.005,2.811
			c-0.009,1.775-1.13,2.541-2.849,2.001c-0.692-0.217-1.413-0.353-2.129-0.475c-0.557-0.095-1.191,0.029-1.254,0.635
			c-0.034,0.331,0.414,0.841,0.774,1.061c1.393,0.854,2.87,1.571,4.254,2.439c1.778,1.114,2.893,2.654,2.916,4.876
			c0.018,1.731,0.089,3.428-0.762,5.041c-1.261,2.39-3.275,3.697-5.847,4.176C171.7,36.007,170.262,36.075,168.89,36.226z"/>
		<path fill="#FFFFFF" d="M149.224,22.484c0-3.1,0.003-6.201-0.001-9.301c-0.002-1.916,0.67-2.503,2.559-2.436
			c1.659,0.059,3.325,0.001,4.986-0.053c1.678-0.054,2.248,0.357,2.433,2.029c0.103,0.924,0.097,1.866,0.07,2.798
			c-0.062,2.102-0.25,4.203-0.237,6.303c0.023,3.802,0.149,7.603,0.246,11.404c0.043,1.669-0.713,2.419-2.377,2.396
			c-1.783-0.024-3.567,0.03-5.35,0.009c-1.85-0.021-2.413-0.625-2.409-2.442c0.007-3.569,0.002-7.139,0.002-10.708
			C149.172,22.484,149.198,22.484,149.224,22.484z"/>
		<path fill="#FFFFFF" d="M154.383,9.36c-1.079,0-2.162,0.063-3.235-0.015c-1.447-0.106-1.907-0.745-1.845-2.193
			c0.044-1.019-0.006-2.042-0.012-3.064c-0.007-1.156,0.367-1.716,1.485-1.742c2.331-0.055,4.666,0.003,6.998,0.057
			c0.786,0.018,1.236,0.528,1.27,1.302c0.058,1.34,0.104,2.683,0.068,4.023c-0.025,0.971-0.57,1.476-1.574,1.522
			c-1.049,0.049-2.103,0.011-3.154,0.011C154.383,9.294,154.383,9.327,154.383,9.36z"/>
	</g>
</g>
</svg>
